<svg width="1204" height="1184" viewBox="0 0 1204 1184" fill="none" xmlns="http://www.w3.org/2000/svg">
<path d="M442.95 192C433.094 192 424.4 198.455 421.544 207.893L326.73 521.179C322.381 535.549 333.13 550.042 348.137 550.042H491.776C504.129 550.042 514.142 540.023 514.142 527.664V421.371C514.142 409.012 524.156 398.993 536.509 398.993H670.706C683.059 398.993 693.073 409.012 693.073 421.371V527.664C693.073 540.023 703.086 550.042 715.439 550.042H858.026C872.991 550.042 883.734 535.624 879.462 521.275L786.179 207.989C783.355 198.503 774.637 192 764.744 192H442.95Z" fill="#8CFF00"/>
<path d="M514.142 706.685C514.142 694.327 504.129 684.308 491.776 684.308H293.957C284.101 684.308 275.407 690.762 272.551 700.2L192.975 963.137C188.626 977.507 199.375 992 214.381 992H491.776C504.129 992 514.142 981.981 514.142 969.622V706.685Z" fill="#8CFF00"/>
<path d="M715.439 992C703.086 992 693.073 981.981 693.073 969.622V706.685C693.073 694.327 703.086 684.308 715.439 684.308H911.329C921.222 684.308 929.94 690.81 932.764 700.296L1011.05 963.233C1015.33 977.582 1004.58 992 989.619 992H715.439Z" fill="#8CFF00"/>
</svg>
