<svg width="64" height="64" viewBox="0 0 64 64" fill="none" xmlns="http://www.w3.org/2000/svg">
<rect width="64" height="64" rx="8" fill="#12181C"/>
<path d="M23.5455 10.3784C23.0216 10.3784 22.5595 10.7273 22.4076 11.2374L17.3677 28.1718C17.1365 28.9486 17.7079 29.732 18.5056 29.732H26.1409C26.7975 29.732 27.3298 29.1904 27.3298 28.5224V22.7768C27.3298 22.1087 27.8621 21.5672 28.5187 21.5672H35.6521C36.3088 21.5672 36.8411 22.1087 36.8411 22.7768V28.5224C36.8411 29.1904 37.3733 29.732 38.03 29.732H45.6094C46.4048 29.732 46.9759 28.9526 46.7488 28.177L41.7902 11.2426C41.6401 10.7299 41.1767 10.3784 40.6508 10.3784H23.5455Z" fill="#8CFF00"/>
<path d="M27.3298 38.1992C27.3298 37.5312 26.7976 36.9896 26.1409 36.9896H15.6256C15.1017 36.9896 14.6396 37.3385 14.4878 37.8487L10.2578 52.0615C10.0266 52.8382 10.598 53.6216 11.3957 53.6216H26.1409C26.7976 53.6216 27.3298 53.0801 27.3298 52.412V38.1992Z" fill="#8CFF00"/>
<path d="M38.03 53.6216C37.3733 53.6216 36.8411 53.0801 36.8411 52.412V38.1992C36.8411 37.5312 37.3733 36.9896 38.03 36.9896H48.4427C48.9686 36.9896 49.432 37.3411 49.5821 37.8538L53.7435 52.0666C53.971 52.8423 53.3996 53.6216 52.6043 53.6216H38.03Z" fill="#8CFF00"/>
</svg>
